<?xml version="1.0" standalone="no"?>
<!DOCTYPE svg PUBLIC "-//W3C//DTD SVG 20010904//EN"
 "http://www.w3.org/TR/2001/REC-SVG-20010904/DTD/svg10.dtd">
<svg version="1.0" xmlns="http://www.w3.org/2000/svg"
 width="363.000000pt" height="363.000000pt" viewBox="0 0 363.000000 363.000000"
 preserveAspectRatio="xMidYMid meet">
<metadata>
Created by potrace 1.14, written by Peter Selinger 2001-2017
</metadata>
<g transform="translate(0.000000,363.000000) scale(0.100000,-0.100000)"
fill="#000000" stroke="none">
<path d="M1879 3272 c-1 -29 -2 -55 -3 -59 -1 -5 -6 -28 -10 -53 -11 -59 -69
-217 -114 -305 -83 -166 -201 -346 -472 -717 -240 -329 -265 -386 -211 -491
34 -68 120 -127 237 -163 47 -15 87 -25 89 -23 2 3 -12 36 -31 74 -85 173 -76
371 27 563 46 86 100 159 195 261 38 41 75 83 83 95 8 12 18 23 21 26 16 13
75 107 104 168 34 69 71 168 81 218 20 100 27 160 27 239 1 138 -20 289 -23
167z"/>
<path d="M1989 3211 c19 -35 102 -352 117 -450 3 -18 8 -43 10 -55 2 -11 7
-41 10 -66 3 -25 7 -52 9 -60 16 -60 23 -359 12 -475 -33 -323 -163 -545 -390
-666 l-72 -39 55 6 c87 9 198 42 275 82 79 41 177 132 218 203 34 57 73 166
86 239 10 56 8 302 -4 375 -11 68 -63 276 -93 370 -52 159 -220 555 -237 555
-3 0 -1 -8 4 -19z"/>
<path d="M1064 2745 c27 -88 27 -236 1 -388 -17 -96 -64 -284 -90 -357 -14
-40 -14 -42 3 -29 65 50 147 155 186 241 74 162 40 367 -87 528 -16 21 -18 21
-13 5z"/>
<path d="M2900 2015 c-1 -5 -3 -22 -4 -36 -5 -53 -50 -172 -86 -227 -90 -139
-243 -247 -422 -297 l-53 -15 115 4 c117 4 136 7 199 27 189 61 285 207 275
416 -3 69 -19 154 -24 128z"/>
<path d="M633 1770 c-69 -31 -121 -91 -143 -167 -9 -30 -32 -60 -77 -104 -63
-61 -75 -81 -35 -60 30 16 114 13 169 -5 102 -35 220 -139 343 -303 35 -46 88
-109 118 -139 92 -91 235 -172 332 -187 19 -3 50 -10 68 -15 18 -5 95 -7 170
-5 135 3 194 12 416 65 221 53 479 15 696 -102 82 -44 200 -127 200 -140 0 -4
5 -8 11 -8 19 0 0 50 -36 100 -114 156 -403 306 -605 315 -30 1 -89 -6 -130
-16 -41 -10 -95 -21 -120 -24 -25 -4 -52 -8 -60 -10 -35 -9 -162 -17 -265 -17
-226 1 -371 27 -510 91 -94 44 -137 84 -195 183 -24 40 -78 108 -120 150 -74
74 -109 96 -230 145 l-25 10 39 37 c61 55 132 78 248 80 54 0 98 4 98 8 0 14
-77 78 -124 104 -66 36 -171 42 -233 14z"/>
<path d="M2150 1404 c0 -2 14 -29 31 -60 41 -72 125 -155 186 -184 116 -55
287 -21 405 81 l33 29 -39 -16 c-96 -38 -253 -49 -348 -23 -74 19 -160 69
-215 124 -29 30 -53 52 -53 49z"/>
</g>
</svg>
